User Type,Username,Date,Text
,Dramat,2011-09-09T19:22Z,"Hey man!
What's the resolution of this one?"
[V],Test_Verify,2011-09-09T19:45Z,"
http://www.imdb.com/title/tt1318514/


General
Complete name                    : Rise.of.the.Planet.of.the.Apes.2011.TS.XVID.AC3.HQ.Hive-CM8.avi
Format                           : AVI
Format/Info                      : Audio Video Interleave
File size                        : 1.41 GiB
Duration                         : 1h 37mn
Overall bit rate                 : 2 058 Kbps
Writing application              : Nandub v1.0rc2
Writing library                  : Nandub build 1853/release

Video
ID                               : 0
Format                           : MPEG-4 Visual
Format profile                   : Advanced Simple@L5
Format settings, BVOP            : 1
Format settings, QPel            : Yes
Format settings, GMC             : No warppoints
Format settings, Matrix          : Default (H.263)
Muxing mode                      : Packed bitstream
Codec ID                         : XVID
Codec ID/Hint                    : XviD
Duration                         : 1h 37mn
Bit rate                         : 1 792 Kbps
Width                            : 720 pixels
Height                           : 304 pixels
Display aspect ratio             : 2.35:1
Frame rate                       : 25.000 fps
Color space                      : YUV
Chroma subsampling               : 4:2:0
Bit depth                        : 8 bits
Scan type                        : Progressive
Compression mode                 : Lossy
Bits/(Pixel*Frame)               : 0.328
Stream size                      : 1.22 GiB (87%)
Writing library                  : XviD 1.2.1 (UTC 2008-12-04)

Audio
ID                               : 1
Format                           : AC-3
Format/Info                      : Audio Coding 3
Mode extension                   : CM (complete main)
Codec ID                         : 2000
Duration                         : 1h 37mn
Bit rate mode                    : Constant
Bit rate                         : 256 Kbps
Channel(s)                       : 2 channels
Channel positions                : Front: L R
Sampling rate                    : 48.0 KHz
Bit depth                        : 16 bits
Compression mode                 : Lossy
Stream size                      : 179 MiB (12%)
Alignment                        : Split accross interleaves
Interleave, duration             : 40 ms (1.00 video frame)
Interleave, preload duration     : 500 ms



http://img840.imageshack.us/img840/6350/ririq.png
http://img684.imageshack.us/img684/4534/riririri.png
http://img153.imageshack.us/img153/1738/ririririri.png
http://img9.imageshack.us/img9/1157/riririririri.png
http://img10.imageshack.us/img10/5787/riririririrrii.png
http://img42.imageshack.us/img42/4479/ririri.png
http://img837.imageshack.us/img837/5108/riririririrririi.png
http://img196.imageshack.us/img196/1518/riririririrrirriii.png"
,rsl87,2011-09-09T20:15Z,THIS IS NOT HIGHRES
,xidio,2011-09-09T20:25Z,"STOP UPLOADING IMAGES TO IMAGESHACK YOU LAZY FUCKS. Images NEVER WORK, you just get the toad no matter how many fucking times you would refresh the fucking pages."
[V],Test_Verify,2011-09-09T21:13Z,it just need u to register ... simple...
,Ki1l4U,2011-09-10T07:27Z,@ Test_Verify That didn't work I registered just so I could see the screenshots and it still only shows the frog in an ice cube. BTW stop uploading shit quality movies to the highres section
[V],Test_Verify,2011-09-10T12:43Z,"well bro i added it to movie section MOD's changed it..so what can i do...

more over i already gave screens in desc.. if u r not   overlooking it...


http://picbg.net/img.php?file=cca73fe6715b7547.jpg

http://picbg.net/img.php?file=26b8e1e6c027c275.jpg

http://picbg.net/img.php?file=9095be4b59d3f257.jpg"
,hu55786,2011-09-10T13:27Z,this is just a ts thanks tho
,hu55786,2011-09-10T13:32Z,@xidio   from image shack us u have to copy and paste the link u dumb shit!
,hu55786,2011-09-10T13:34Z,COPY AND PASTE SCREENSHOTS !!!!!
,enerqie2011,2011-10-07T22:35Z,"a?
v?

cannot see screenshorts, dunno why."
,IsoSucks,2011-10-09T14:42Z,"@enerqie2011
(hu55786 ) already pointed it out, what you need someone to spell it for you ?
here's there comment below 
@enerqie2011 from image shack us u have to copy and paste the link u dumb shit! 

read the posts be for yours and then you will know "
